<svg xmlns="http://www.w3.org/2000/svg" viewBox="0 0 100 100" width="100" height="100">
  <circle cx="50" cy="50" r="48" fill="#FFFDE7" stroke="#F57F17" stroke-width="3"/>
  <!-- Sun rays -->
  <line x1="50" y1="8"  x2="50" y2="18" stroke="#FFB300" stroke-width="4" stroke-linecap="round"/>
  <line x1="50" y1="82" x2="50" y2="92" stroke="#FFB300" stroke-width="4" stroke-linecap="round"/>
  <line x1="8"  y1="50" x2="18" y2="50" stroke="#FFB300" stroke-width="4" stroke-linecap="round"/>
  <line x1="82" y1="50" x2="92" y2="50" stroke="#FFB300" stroke-width="4" stroke-linecap="round"/>
  <line x1="19" y1="19" x2="26" y2="26" stroke="#FFB300" stroke-width="4" stroke-linecap="round"/>
  <line x1="74" y1="74" x2="81" y2="81" stroke="#FFB300" stroke-width="4" stroke-linecap="round"/>
  <line x1="81" y1="19" x2="74" y2="26" stroke="#FFB300" stroke-width="4" stroke-linecap="round"/>
  <line x1="19" y1="81" x2="26" y2="74" stroke="#FFB300" stroke-width="4" stroke-linecap="round"/>
  <!-- Sun center -->
  <circle cx="50" cy="50" r="22" fill="#F57F17"/>
  <circle cx="50" cy="50" r="18" fill="#FFB300"/>
  <!-- Sunglasses -->
  <rect x="34" y="44" width="12" height="9" rx="4" fill="#1A1A2E"/>
  <rect x="54" y="44" width="12" height="9" rx="4" fill="#1A1A2E"/>
  <line x1="46" y1="48" x2="54" y2="48" stroke="#1A1A2E" stroke-width="2"/>
  <!-- Smile -->
  <path d="M40,58 Q50,68 60,58" stroke="#F57F17" stroke-width="2.5" fill="none" stroke-linecap="round"/>
</svg>
